<svg version="1.2" xmlns="http://www.w3.org/2000/svg" viewBox="0 0 657 558" width="657" height="558"><style>.a{fill:#fff}.b{opacity:0;fill:#fff}.c{fill:#fceadc}.d{fill:#976063}.e{fill:#fdfffe}.f{fill:#5e3b3b}.g{fill:#fd755f}.h{fill:#ffb486}.i{fill:#fca377}.j{fill:#bb8a5c}.k{fill:#a3bd8c}.l{fill:#ffb587}.m{fill:#ffba8c}.n{fill:#89a371}.o{fill:#9b6c49}.p{fill:#f75d59}.q{fill:#c0d8a7}.r{fill:#e2edd3}.s{fill:#ffd4cf}.t{fill:#bdd6a5}.u{fill:#ffc76c}.v{fill:#ffe9ab}.w{fill:#fff9ee}</style><g style="display:none"></g><g style="display:none"><path class="a" d="m779 558h-900v-600h900z"/><path class="b" d="m779 558h-900v-600h900z"/></g><path class="c" d="m129.5 430.6c-33.8-12.9-80.4-60.4-88.4-120.4-5.7-43.1 3.2-74.7 16.5-97.6 23-39.5 65.9-53.5 110.5-59.8 57-8.2 83.4-42.1 122.1-83.4 43.2-46.3 156.8-92.1 219.9-38 41.1 35.1 26.9 91.3 55.4 120.3 28.8 29.2 67.4 20.4 83.3 76 12.3 43.4-14 116-91.2 170.3-71.1 49.9-310 77.5-428.1 32.6z"/><path class="d" d="m292.1 508.1h218.3c7.1 0 12.8-5.6 12.8-12.5v-433.2c0-6.9-5.7-12.5-12.8-12.5h-218.3c-7.1 0-12.8 5.6-12.8 12.5v433.2c0 6.9 5.7 12.5 12.8 12.5z"/><path class="e" d="m515.9 93.5v32.4c0 1.3-1 2.4-2.4 2.4h-0.2v367.3c0 6.9-5.7 12.5-12.8 12.5h-218.3c-7.1 0-12.8-5.6-12.8-12.5v-280.9h-0.3c-1.3 0-2.4-1.1-2.4-2.4v-32.4c0-1.3 1.1-2.4 2.4-2.4h0.3v-11.2h-0.3c-1.3 0-2.4-1.1-2.4-2.4v-32.4c0-1.3 1.1-2.4 2.4-2.4h0.3v-66.7c0-6.9 5.7-12.5 12.8-12.5h218.3c7.1 0 12.8 5.6 12.8 12.5v28.7h0.2c1.4 0 2.4 1.1 2.4 2.4z"/><path class="d" d="m270.4 291.1h-2v-75.4c-1.6-0.4-2.7-1.7-2.7-3.4v-32.4c0-1.6 1.1-3 2.7-3.3v-9.4c-1.6-0.3-2.7-1.7-2.7-3.3v-32.4c0-1.6 1.1-3 2.7-3.3v-65.8c0-7.4 6.2-13.5 13.8-13.5h218.3c7.6 0 13.8 6.1 13.8 13.5v27.8c1.5 0.4 2.6 1.7 2.6 3.3v32.4c0 1.6-1.1 3-2.6 3.3v138.7h-2v-140.6h1.2c0.8 0 1.4-0.6 1.4-1.4v-32.4c0-0.8-0.6-1.4-1.4-1.4h-1.2v-29.7c0-6.3-5.3-11.5-11.8-11.5h-218.3c-6.5 0-11.8 5.2-11.8 11.5v67.7h-1.3c-0.8 0-1.4 0.6-1.4 1.4v32.4c0 0.8 0.6 1.4 1.4 1.4h1.3v13.2h-1.3c-0.8 0-1.4 0.6-1.4 1.4v32.4c0 0.8 0.6 1.4 1.4 1.4h1.3z"/><path class="d" d="m500.5 509.1h-218.3c-7.6 0-13.8-6-13.8-13.5v-78.8h2v78.8c0 6.4 5.3 11.5 11.8 11.5h218.3c6.5 0 11.8-5.1 11.8-11.5v-164.8h2v164.8c0 7.5-6.2 13.5-13.8 13.5z"/><path class="c" d="m501.5 74.6v405.4c0 6.5-5.1 11.7-11.5 11.7h-196.9c-6.4 0-11.6-5.2-11.6-11.7v-405.4c0-6.5 5.2-11.7 11.6-11.7h57.5c1.8 0 3.3 1.5 3.3 3.4v5.4c0 2.4 2 4.4 4.4 4.4h66.5c2.4 0 4.4-2 4.4-4.4v-5.4c-0.1-1.9 1.4-3.4 3.3-3.4h57.4c6.5 0 11.6 5.2 11.6 11.7z"/><path class="f" d="m364.5 65c0 1.1-0.9 2-2 2-1.2 0-2.1-0.9-2.1-2 0-1.2 0.9-2.1 2.1-2.1 1.1 0 2 0.9 2 2.1z"/><path class="f" d="m422.3 66.1h-47.2c-0.7 0-1.2-0.5-1.2-1.1 0-0.6 0.5-1.2 1.2-1.2h47.2c0.6 0 1.1 0.6 1.1 1.2 0 0.6-0.5 1.1-1.1 1.1z"/><path class="a" d="m299.5 307.7h183.7c3.8 0 6.9-3.1 6.9-6.9v-180.6c0-3.8-3.1-6.9-6.9-6.9h-183.7c-3.8 0-6.9 3.1-6.9 6.9v180.6c0 3.8 3.1 6.9 6.9 6.9z"/><path class="d" d="m474.8 308.7h-174.3c-4.9 0-8.9-4-8.9-8.9v-161.8h2v161.8c0 3.8 3.1 6.9 6.9 6.9h174.3z"/><path class="d" d="m490.1 260.6h-2v-140.4c0-2.7-2.2-4.9-4.9-4.9h-165.7v-2h165.7c3.8 0 6.9 3.1 6.9 6.9z"/><path class="g" d="m329.5 380.3h123.7c6.2 0 11.2-5.1 11.2-11.3v-15.4c0-6.1-5-11.2-11.2-11.2h-123.7c-6.2 0-11.2 5.1-11.2 11.2v15.4c0 6.2 5 11.3 11.2 11.3z"/><path class="d" d="m453.2 381.3h-104.5v-2h104.5c5.6 0 10.2-4.6 10.2-10.3v-15.4h2v15.4c0 6.8-5.5 12.3-12.2 12.3z"/><path class="d" d="m329.5 381.3c-6.7 0-12.2-5.5-12.2-12.3v-15.4c0-6.7 5.5-12.2 12.2-12.2h75.8v2h-75.8c-5.6 0-10.2 4.6-10.2 10.2v15.4c0 5.7 4.6 10.3 10.2 10.3z"/><path class="d" d="m453.2 343.4h-28.8v-2h28.8z"/><g style="display:none"><path fill-rule="evenodd" class="e" d="m366.7 351.3h6.8q3.5 0 5.2 1.2 1.7 1.3 1.7 3.7v2q0 2.5-1.7 3.8-1.7 1.2-5.2 1.2h-2.1v8.2h-4.7zm6.8 9.1q1.2 0 1.7-0.4 0.6-0.4 0.6-1.5v-2.4q0-1-0.6-1.4-0.5-0.5-1.7-0.5h-2.1v6.2z"/></g><g style="display:none"><path fill-rule="evenodd" class="e" d="m387.6 351.3h6.3l4.8 20.1h-4.7l-0.8-4v0.1h-5.3l-0.8 3.9h-4.3zm5.1 13.5l-2.1-9.9h-0.1l-2 9.9z"/></g><g style="display:none"><path class="e" d="m405.8 362.8l-5.6-11.5h4.9l3.1 7.4h0.1l3.2-7.4h4.5l-5.6 11.5v8.6h-4.6z"/></g><path class="h" d="m582.7 496.3l1.6-18.9h-13.9l0.8 18.9z"/><path class="i" d="m584.2 477.7l-0.9 10.6c-4.9 0.4-9.6-0.2-12.5-0.7l-0.5-11.1z"/><path class="j" d="m559.4 483.6c13.1 2 25.4 2.9 34.7 0 0 0 7.8-88.2-6.1-169.3l-27.9 0.2c0 0-10.7 97.4-0.7 169.1z"/><path class="f" d="m558.3 233.7c-5.3-1.3-8.6-3.6-9.8-6.9-1.8-4.8 1.6-9.6 2-10.2l1.1 0.8c-0.2 0.2-3.4 4.7-1.9 9 1 2.8 4 4.8 8.9 6z"/><path class="h" d="m501.2 496.3l6-18.9h-14l-4.2 18.9z"/><path class="i" d="m507.2 477.2l-3.3 10.4c-6.3 1.2-11.1 0.1-12.8-0.4l2.4-10.6h4.9z"/><path class="k" d="m574.8 258.3c0 0 37.5 6.9 34.1 44-1.4 15.4-13 26.1-13 26.1l-4.3-13-15 5z"/><path class="l" d="m553.9 261.9l2.7-20.2h11.9l2.8 20.2z"/><path class="l" d="m560 249.5c7.6-2.2 16.5-12.6 13.1-24.6-2.6-9.6-18.9-6.9-23.3 1.3-6.7 12.7-7.1 28.1 10.2 23.3z"/><path class="m" d="m491.1 282.1c-0.7-0.6-3.1-2.1-3.5-3-0.3-0.7-1.7-5-2.6-4.6-0.9 0.4 0.7 3.1-0.1 3.3-0.5 0.1-3.7-5.2-4.5-4.3-0.6 0.5 1.8 3.5 1.4 3.7-0.4 0.2-2.5-4.1-3.4-3.3-0.9 0.8 3 4.4 2.5 4.8-0.2 0.2-3.6-4.6-4.3-3.9-0.9 0.9 2.9 4.2 2.6 4.6-0.2 0.3-1.4-1.1-2.2-1.9-0.4-0.4-0.8-0.1-0.7 0.3 1.3 4 7.7 7.7 8.2 8.3q0.9 1.3 1.8 2.5z"/><path class="j" d="m482.7 482.7c12.7 1.8 24.6 2.2 34.9 0 42.8-79.4 60.7-169.1 60.7-169.1h-33.1c-42.7 73.6-62.5 169.1-62.5 169.1z"/><path class="k" d="m510.2 290.5l-18.8-10.1-6.8 8.9c0 0 11.1 28.9 32.8 26.5 17.3-2 27.8-34.5 27.8-34.5z"/><path class="k" d="m596.2 337.8c-29.8 13.6-73.2 1.7-73.2 1.7l1.3-4.4 0.2-0.7 11.3-37.6-29.7-0.4c0 0 19.9-27.9 31.5-34.6 3-1.8 7.1-3.2 11.6-4q0.6-0.1 1.1-0.2c7.5-1.2 16.2-1.1 24.2 0.6q0.4 0.1 0.8 0.2c4.5 1 8.6 2.5 12.2 4.6 0 0-2.1 12 0.9 20.1 6.7 18.5 7.8 40.6 7.9 50.1q0 0.4 0 0.7c0 2.5-0.1 3.9-0.1 3.9z"/><path class="n" d="m570.1 344q-0.6 0-1.3 0.1-0.5 0-0.9 0c-23.3 1.3-44.9-4.6-44.9-4.6l1.3-4.4 0.2-0.7 8.8-29.3c1.5-1.5 8.9-13.7 10.1-18.6 0 0 0.4 12.6-3.5 22.9-2.5 6.5-5.3 16.1-2 22.3 4.3 7.9 31.9 12.1 32.2 12.3z"/><path class="f" d="m508.6 294.3l-1-0.8 12.4-15.2 1 0.8z"/><path class="f" d="m553.9 250.7c-3.8 0-5.8-1.9-5.9-2.1l0.9-0.9c0.1 0.1 3.3 3.2 9.4 0.8l0.5 1.2c-1.9 0.7-3.5 1-4.9 1z"/><path class="l" d="m570.7 257.3c-8.8 4.1-16.1-0.4-16.1-0.4l0.2-1.6 15.6-0.2z"/><path class="f" d="m561.3 340.9c-17.2 0-31.7-3.6-37.2-5.2l0.4-1.2c5.4 1.5 19.8 5.1 36.8 5.1 13 0 24.7-2.1 34.7-6.3l0.5 1.2c-10.2 4.2-22 6.4-35.2 6.4z"/><path class="f" d="m597.3 337.8h-1.3c0-0.3-0.1-32.3-7.9-54.6l1.2-0.4c7.9 22.5 8 54.7 8 55z"/><path class="f" d="m564.4 262.5c-6.2 0-12.1-3-14.4-4.3l0.7-1.1c3.4 1.9 15.3 7.9 23.3 0.6l0.9 1c-3.2 2.8-6.9 3.8-10.5 3.8z"/><path class="f" d="m468.9 506.5h36.2l-2.5-14.2c-7.7 3.5-11.2 1.3-13.5 0.5 0 0-1.8 1.6-4 2.5-5.7 2.1-15.8 5.4-16.1 8q0 0 0 0.1c-0.3 1.3-0.2 2.7-0.1 3.1z"/><path class="e" d="m478.8 500.1h-0.5 0.5l-0.5-0.1c0.1-1.3 0.3-2.6 0.5-3.8l1 0.2c-0.2 1.1-0.4 2.4-0.5 3.7z"/><path class="e" d="m481.9 499.4h-1c0-0.1 0.1-2.1 0.6-4.2l0.9 0.2c-0.4 2-0.5 3.9-0.5 4z"/><path class="f" d="m549.9 506.5h36.2l-2.5-14.2c-7.6 3.5-11.1 1.3-13.5 0.5 0 0-1.8 1.6-3.9 2.5-5.8 2.1-15.9 5.4-16.1 8q0 0 0 0.1c-0.3 1.3-0.2 2.7-0.2 3.1z"/><path class="e" d="m559.9 500.1h-0.5 0.5l-0.5-0.1c0-1.3 0.2-2.6 0.5-3.8l0.9 0.2c-0.2 1.1-0.4 2.4-0.4 3.7z"/><path class="e" d="m563 499.4h-1c0-0.1 0-2.1 0.5-4.2l1 0.2c-0.5 2-0.5 3.9-0.5 4z"/><path class="f" d="m540.2 295.6l-1-0.9 6.6-7.3 0.9 0.8z"/><path class="f" d="m593.5 335.1h-1.3c0-7.4-0.9-17.7-0.9-17.9l1.3-0.1c0 0.1 0.9 10.6 0.9 18z"/><path class="f" d="m514.8 316.9c-20.4 0-31-26.9-31.2-27.2l1.3-0.5c0.1 0.3 10.3 26.4 29.9 26.4q1.3 0 2.5-0.1c17-1.9 27.2-33 27.6-34.3l1.3 0.4c-0.5 1.3-10.9 33.2-28.7 35.2q-1.3 0.1-2.7 0.1z"/><path class="f" d="m595.5 279.9c-7.8 4.7-26.4 3.6-33.1-12-4.9-11.4-2.5-24.4-1.3-28l-2.1-6.5c0 0-10.2-4.4-7.6-16.2 0 0 1.1 0.9 4.6 0.6 1.9-0.2 7-2 12-1q0 0 0 0c4.5 0.6 14 3.8 15 18.7 0.8 12.4 11 13.7 15.9 18.7 9.8 9.9 5.5 20.4-3.4 25.7z"/><path class="l" d="m563.6 236.5c0 1.9-1.5 3.4-3.4 3.4-1.8 0-3.3-1.5-3.3-3.4 0-1.8 1.5-3.3 3.3-3.3 1.9 0 3.4 1.5 3.4 3.3z"/><path class="f" d="m607.2 260.6c-0.8-3.2-2.8-6.2-5.9-8.9-1.5-1.3-3.4-2.3-5.5-3.3-5.1-2.5-10.4-5.2-11.7-13.8-2.1-14.7-11.7-16.8-15.8-17h-0.1c-3.6-0.5-7.2 0.6-9.5 1.4-0.9 0.2-1.6 0.4-2.1 0.5l-0.2-1.3c0.4-0.1 1.1-0.3 1.9-0.5 2.4-0.7 6.2-1.9 10.1-1.4 4.4 0.3 14.8 2.5 17 18.1 1.2 7.9 6.2 10.4 11 12.9 2.1 1 4.1 2 5.7 3.4 3.4 2.9 5.5 6.2 6.4 9.6z"/><path class="o" d="m587.8 484.9c-8.2 1.2-18 0.3-28.4-1.3-3.9-28-4.5-59.5-3.9-88 0 0.3 8.5-27.2 8.5-27.2 0 0-3.7 21.5-2.4 34.4 1.3 13.4 6.2 17.3 8 32.4 1.1 8.8-3.2 15.4-1.6 24.6 1.6 9.7 9.1 15.7 16.3 22.2 1.1 1 2.4 1.9 3.5 2.9z"/><path class="e" d="m555.6 397.4l-1.2-0.4c3.5-10 6.8-20.3 9.9-30.6l1.3 0.4c-3.1 10.3-6.5 20.6-10 30.6z"/><path class="o" d="m519.6 479q-1 1.9-2 3.7c-10.4 2.2-22.2 1.8-34.9 0 0 0 9-43.5 28-94.4 0.9 9.3-1.4 19-4.1 28.2-3.7 11.9-8.1 24.1-7 36.6 0.8 9 5.5 18.7 13.4 23.5 1.9 1.2 4.2 1.8 6.6 2.4z"/><path class="e" d="m508.9 396.3l-1.2-0.5c7.8-21.6 15.7-40.9 22.8-55.9l1.2 0.6c-7.1 14.9-15 34.2-22.8 55.8z"/><path class="k" d="m225.3 170c-1.6 90.7-136.4 90.7-138 0 1.6-90.6 136.4-90.6 138 0z"/><path class="g" d="m225.3 170c-1.6 90.7-136.4 90.7-138 0 1.6-90.6 136.4-90.6 138 0z"/><path class="a" d="m216.4 170c-1.4 79-118.8 79-120.2 0 1.4-78.9 118.8-78.9 120.2 0z"/><path class="a" d="m216.4 170c-1.4 79-118.8 79-120.2 0 1.4-78.9 118.8-78.9 120.2 0z"/><path class="f" d="m191.7 178.8l-33.2-10.7-17.4-41.2c-0.4-0.9-1.3-1.5-2.3-1.5-1.7-0.1-3 1.8-2.3 3.4l16.4 38.9-44.9-13.3c-0.7-0.2-1.4 0.2-1.6 0.9-0.2 0.6 0.2 1.3 0.9 1.5l46.9 13.9 0.2 0.5-0.2 0.7 0.6 0.2 0.2 0.6 0.7-0.3 34.5 11.1c3.1 1.1 4.6-3.8 1.5-4.7z"/><path class="f" d="m149.3 129.1v1.8h6.6v-1.8h-2.1v-9.9h-1.7l-3.6 3.1c1.1 2 1.9 1.1 3.1-0.1v6.9z"/><path class="f" d="m163.8 128.8c0 0-3.7 0-3.7 0 10.7-8.3-1.7-13.9-3.2-5.9 3.1 1.1 1.5-2.5 4.5-1.7 3.9 3.1-5.3 6.4-4.7 9.7h8c0-0.8 0.3-2.1-0.9-2.1z"/><path fill-rule="evenodd" class="f" d="m153.8 212.7c0.2-0.2 2.9-4.1 3.1-4 0.4-0.3 2.2-0.1 2.6-0.1l-3.3 4.2c1.1-0.2 2.3 0.1 3.2 0.9 5.3 9.2-12.3 8.3-5.6-1zm4.5 3.8c0.2-2.6-3.9-2.5-3.9-0.1-0.2 2.6 4 2.6 3.9 0.1z"/><path class="f" d="m206.5 170.1q-0.4-0.4-0.9-0.7c5.1-5-6-8.5-6.3-1.9 0.7 0.1 2 0.6 2.2-0.5 2-4.1 5.7 2.2 0.7 1.7v1.7c3.7-0.7 3.5 4.1 0.1 3.2-1.6-0.9-1-2.8-3.3-1.4 0.7 5.9 10.7 3.3 7.5-2.1z"/><path fill-rule="evenodd" class="f" d="m109.5 175c-0.5 0.8-2.3 0.4-3.1 0.5l3.5-4.5c-7.9 0.7-3.3-11.1 2.5-6.1 3 3.2-1.2 7.4-2.9 10.1zm1.7-6.8c1-2.2-2.4-3.6-3.3-1.5-1 2.3 2.4 3.6 3.3 1.5z"/><path class="d" d="m130.3 125.6l-3.9-6.7 2-1.2 3.9 6.7z"/><path class="d" d="m184.2 222.1l-3.9-6.8 2-1.1 3.9 6.7z"/><path class="d" d="m110.6 144.8l-7-4 1.2-2 7 4z"/><path class="d" d="m110.6 144.8l-7-4 1.2-2 7 4z"/><path class="d" d="m207.9 201l-7.1-4.1 1.2-2 7 4.1z"/><path class="d" d="m104.8 201l-1.2-2 7-4.1 1.2 2z"/><path class="d" d="m104.8 201l-1.2-2 7-4.1 1.2 2z"/><path class="d" d="m202 144.8l-1.2-2 7.1-4 1.1 2z"/><path class="d" d="m128.4 222.1l-2-1.2 3.9-6.7 2 1.1z"/><path class="d" d="m128.4 222.1l-2-1.2 3.9-6.7 2 1.1z"/><path class="d" d="m182.3 125.6l-2-1.2 3.9-6.7 2 1.2z"/><path class="p" d="m162.5 170c0.2 8.1-12.5 8.1-12.4 0-0.1-8.1 12.6-8.1 12.4 0z"/><path fill-rule="evenodd" class="d" d="m156.3 230.1q0 0 0 0c-28.8 0-60.2-18.8-60.9-60.1 0.7-41.3 32.1-60 60.9-60q0 0 0 0c28.9 0 60.2 18.7 60.9 60-0.7 41.3-32 60.1-60.9 60.1zm0-118.5c-28 0-58.5 18.3-59.2 58.4 0.7 40.1 31.2 58.4 59.2 58.4 28 0 58.5-18.3 59.2-58.4-0.7-40.1-31.1-58.3-59.2-58.4z"/><path class="d" d="m217.5 139.1c-5.3-11-13.8-20.2-24.5-26.5l0.9-1.4c10.9 6.4 19.7 15.9 25.1 27.2z"/><path class="d" d="m88.3 186.2c-1.1-5.1-1.7-10.6-1.8-16.2 0.5-28.8 13.9-45.3 25.2-54 16.8-13.2 40-18 62-12.8l-0.4 1.6c-21.5-5-44.2-0.3-60.6 12.5-10.9 8.6-24 24.6-24.5 52.7 0.1 5.5 0.7 10.8 1.8 15.8z"/><path class="d" d="m156.4 238.9c-20.8 0-41-8.5-54-23.8l1.2-1.1c17.9 21.1 49.9 28.8 77.7 18.9 26.9-9.6 42.6-32.6 43.1-62.9h1.7c-0.3 16.3-4.7 30.3-13.2 41.8-7.6 10.3-18.4 18.1-31 22.7-8.3 2.9-17 4.4-25.5 4.4z"/><path class="q" d="m385.7 205.1h-71.2v-54.8h71.2z"/><path class="q" d="m468.2 205.1h-71.2v-54.8h71.2z"/><path class="q" d="m385.7 270.6h-71.2v-54.7h71.2z"/><path class="q" d="m468.2 270.6h-71.2v-54.7h71.2z"/><path class="a" d="m430.1 258.7q-3.1-0.5-4.8-2.5-1.7-2.1-1.7-5.2v-2.2h5.7v2.5q0 2.9 3.1 2.9 3.1 0 3.1-3 0-1.8-1.1-3.3-1.1-1.5-4-3.4-3.7-2.5-5.1-4.7-1.5-2.1-1.5-4.9 0-3 1.6-5 1.6-2 4.7-2.6v-2.8h4.9v2.8q3.2 0.6 4.8 2.6 1.6 2 1.6 5.1v1h-5.6v-1.3q0-2.9-3-2.9-3 0-3 2.8 0 1.7 1.1 3.1 1.1 1.5 4 3.5 3.7 2.5 5.1 4.7 1.5 2.2 1.5 5 0 3.2-1.7 5.2-1.6 2.1-4.8 2.6v3.3h-4.9z"/><path class="k" d="m309.4 334.7v23.2h-225.8v-23.2c0-7 5.7-12.7 12.7-12.7h200.4c7 0 12.7 5.7 12.7 12.7z"/><path class="e" d="m309.4 357.9v136.4c0 7-5.7 12.8-12.7 12.8h-200.4c-7 0-12.7-5.8-12.7-12.8v-136.4z"/><path class="r" d="m118.2 399.2h-21.2v-17.3h21.2z"/><path class="r" d="m118.2 426.6h-21.2v-17.3h21.2z"/><path class="r" d="m118.2 454.1h-21.2v-17.3h21.2z"/><path class="r" d="m118.2 481.5h-21.2v-17.2h21.2z"/><path class="r" d="m147.8 399.2h-21.1v-17.3h21.1z"/><path class="r" d="m147.8 426.6h-21.1v-17.3h21.1z"/><path class="r" d="m147.8 454.1h-21.1v-17.3h21.1z"/><path class="r" d="m147.8 481.5h-21.1v-17.2h21.1z"/><path class="r" d="m177.4 399.2h-21.1v-17.3h21.1z"/><path class="r" d="m177.4 426.6h-21.1v-17.3h21.1z"/><path class="r" d="m177.4 454.1h-21.1v-17.3h21.1z"/><path class="r" d="m177.4 481.5h-21.1v-17.2h21.1z"/><path class="r" d="m207.1 399.2h-21.2v-17.3h21.2z"/><path class="g" d="m207.1 426.6h-21.2v-17.3h21.2z"/><path class="r" d="m207.1 454.1h-21.2v-17.3h21.2z"/><path class="r" d="m207.1 481.5h-21.2v-17.2h21.2z"/><path class="r" d="m236.7 399.2h-21.1v-17.3h21.1z"/><path class="r" d="m236.7 426.6h-21.1v-17.3h21.1z"/><path class="r" d="m236.7 454.1h-21.1v-17.3h21.1z"/><path class="r" d="m236.7 481.5h-21.1v-17.2h21.1z"/><path class="s" d="m266.4 454.1h-21.2v-17.3h21.2z"/><path class="s" d="m266.4 399.2h-21.2v-17.3h21.2z"/><path class="s" d="m266.4 426.6h-21.2v-17.3h21.2z"/><path class="s" d="m266.4 481.5h-21.2v-17.2h21.2z"/><path class="s" d="m296 481.5h-21.1v-17.2h21.1z"/><path class="s" d="m296 399.2h-21.1v-17.3h21.1z"/><path class="s" d="m296 426.6h-21.1v-17.3h21.1z"/><path class="s" d="m296 454.1h-21.1v-17.3h21.1z"/><path class="e" d="m195.5 424.5l-6.2-8.2 1.9-1.7 4.2 5.6 6.4-8.8 2 1.7z"/><path class="d" d="m287.4 358.7h-181.8v-2h181.8z"/><path class="d" d="m310.4 371.7h-2v-37c0-6.5-5.2-11.7-11.7-11.7h-200.4v-2h200.4c7.6 0 13.7 6.1 13.7 13.7z"/><path class="d" d="m296.7 508h-200.4c-7.6 0-13.7-6.1-13.7-13.7v-159.6h2v159.6c0 6.5 5.2 11.7 11.7 11.7h200.4c6.5 0 11.7-5.2 11.7-11.7v-79.8h2v79.8c0 7.6-6.1 13.7-13.7 13.7z"/><path class="t" d="m153 337.5c0 3.3-2.5 5.9-5.6 5.9-3.1 0-5.7-2.6-5.7-5.9 0-3.3 2.6-6 5.7-6 3.1 0 5.6 2.7 5.6 6z"/><path class="f" d="m147.4 340.1h-0.1c-1.9 0-3.5-1.6-3.5-3.6v-22.6c0-2 1.6-3.6 3.5-3.6h0.1c2 0 3.6 1.6 3.6 3.6v22.6c0 2-1.6 3.6-3.6 3.6z"/><path class="t" d="m123.8 337.5c0 3.3-2.5 5.9-5.6 5.9-3.2 0-5.7-2.6-5.7-5.9 0-3.3 2.5-6 5.7-6 3.1 0 5.6 2.7 5.6 6z"/><path class="f" d="m118.2 340.1h-0.1c-2 0-3.6-1.6-3.6-3.6v-22.6c0-2 1.6-3.6 3.6-3.6h0.1c2 0 3.6 1.6 3.6 3.6v22.6c0 2-1.6 3.6-3.6 3.6z"/><path class="t" d="m184.9 337.5c0 3.3-2.5 5.9-5.6 5.9-3.2 0-5.7-2.6-5.7-5.9 0-3.3 2.5-6 5.7-6 3.1 0 5.6 2.7 5.6 6z"/><path class="f" d="m179.3 340.1h-0.1c-2 0-3.6-1.6-3.6-3.6v-22.6c0-2 1.6-3.6 3.6-3.6h0.1c2 0 3.6 1.6 3.6 3.6v22.6c0 2-1.6 3.6-3.6 3.6z"/><path class="t" d="m216.8 337.5c0 3.3-2.6 5.9-5.7 5.9-3.1 0-5.6-2.6-5.6-5.9 0-3.3 2.5-6 5.6-6 3.1 0 5.7 2.7 5.7 6z"/><path class="f" d="m211.2 340.1h-0.1c-2 0-3.6-1.6-3.6-3.6v-22.6c0-2 1.6-3.6 3.6-3.6h0.1c1.9 0 3.6 1.6 3.6 3.6v22.6c0 2-1.7 3.6-3.6 3.6z"/><path class="t" d="m248.6 337.5c0 3.3-2.5 5.9-5.6 5.9-3.1 0-5.6-2.6-5.6-5.9 0-3.3 2.5-6 5.6-6 3.1 0 5.6 2.7 5.6 6z"/><path class="f" d="m243 340.1c-2 0-3.6-1.6-3.6-3.6v-22.6c0-2 1.6-3.6 3.6-3.6 2 0 3.6 1.6 3.6 3.6v22.6c0 2-1.6 3.6-3.6 3.6z"/><path class="t" d="m280.5 337.5c0 3.3-2.5 5.9-5.6 5.9-3.1 0-5.7-2.6-5.7-5.9 0-3.3 2.6-6 5.7-6 3.1 0 5.6 2.7 5.6 6z"/><path class="f" d="m274.9 340.1h-0.1c-1.9 0-3.6-1.6-3.6-3.6v-22.6c0-2 1.7-3.6 3.6-3.6h0.1c2 0 3.6 1.6 3.6 3.6v22.6c0 2-1.6 3.6-3.6 3.6z"/><path class="u" d="m468.3 470.3c-4.8 24.8-28.8 41-53.5 36.2-24.8-4.8-41-28.7-36.2-53.5 4.8-24.8 28.7-41 53.5-36.2 24.8 4.8 41 28.8 36.2 53.5z"/><path class="v" d="m455.7 467.9c-3.4 17.8-20.7 29.5-38.5 26.1-17.8-3.5-29.5-20.7-26-38.6 3.4-17.8 20.7-29.5 38.5-26 17.8 3.4 29.5 20.7 26 38.5z"/><path class="d" d="m401.4 502.8c-17.5-9.5-27.7-29.5-23.7-50 2.3-12.2 9.3-22.8 19.6-29.8 10.3-6.9 22.8-9.5 35-7.1 5.5 1 10.6 3 15.3 5.9l-0.9 1.6c-4.6-2.8-9.5-4.7-14.8-5.7-11.7-2.3-23.6 0.2-33.5 6.9-9.9 6.7-16.6 16.8-18.9 28.6-4.7 24.2 11.2 47.7 35.4 52.4 11.2 2.2 22.6 0.1 32.2-5.9l1 1.6c-10 6.2-21.9 8.4-33.5 6.2-4.8-1-9.2-2.6-13.2-4.7z"/><path class="d" d="m460.4 490.1l-1.5-1.1c4.3-5.6 7.2-11.9 8.5-18.8 2.4-12.6-0.7-25.6-8.5-35.8l1.5-1.1c8.1 10.5 11.4 24.1 8.8 37.2-1.4 7.2-4.3 13.8-8.8 19.6z"/><path class="u" d="m415.9 482.3q-4.3-1.6-6-4.8-1.8-3.3-1-7.6l0.6-3 7.9 1.6-0.7 3.4q-0.7 3.9 3.6 4.8 4.3 0.8 5.1-3.3 0.5-2.5-0.6-4.8-1.1-2.3-4.7-5.8-4.5-4.4-5.9-7.8-1.5-3.4-0.8-7.1 0.8-4.2 3.6-6.5 2.8-2.3 7.3-2.3l0.7-3.9 6.9 1.3-0.8 3.9q4.3 1.7 6 4.9 1.8 3.1 0.9 7.5l-0.2 1.3-7.9-1.6 0.3-1.7q0.8-4-3.4-4.8-4.2-0.8-4.9 3-0.5 2.4 0.6 4.6 1.2 2.3 4.8 5.9 4.4 4.4 5.8 7.8 1.5 3.4 0.8 7.3-0.9 4.4-3.7 6.8-2.9 2.3-7.5 2.2l-0.8 4.6-6.9-1.4z"/><path class="w" d="m405.5 427c2.2 3.1 3 6.6 2.8 10.3 3-2.2 6.4-3.4 10.2-3.3-2.2-3.2-3-6.6-2.8-10.3-3 2.1-6.4 3.4-10.2 3.3z"/><path class="w" d="m424.8 492.8c1.3 1.8 1.7 3.8 1.6 6 1.8-1.3 3.7-2 5.9-1.9-1.2-1.9-1.7-3.9-1.6-6-1.7 1.2-3.7 2-5.9 1.9z"/><path class="u" d="m13.5 506.6h88.7v-17.2h-88.7z"/><path class="u" d="m32.2 487.6h88.6v-17.1h-88.6z"/><path class="u" d="m13.6 468.7h88.6v-17.1h-88.6z"/><path class="d" d="m92 468.7h1.8v-17.1h-1.8z"/><path class="d" d="m82.6 468.7h1.9v-17.1h-1.9z"/><path class="d" d="m54.6 468.7h1.9v-17.1h-1.9z"/><path class="d" d="m36 468.7h1.8v-17.1h-1.8z"/><path class="d" d="m110.6 487.6h1.8v-17.1h-1.8z"/><path class="d" d="m101.2 487.6h1.9v-17.1h-1.9z"/><path class="d" d="m73.2 487.6h1.9v-17.1h-1.9z"/><path class="d" d="m63.9 487.6h1.9v-17.1h-1.9z"/><path class="d" d="m54.6 506.6h1.8v-17.2h-1.8z"/><path class="d" d="m35.9 506.6h1.9v-17.2h-1.9z"/><path class="d" d="m26.6 506.6h1.8v-17.2h-1.8z"/><path class="d" d="m13.6 470.5h88.1v-1.9h-88.1z"/><path class="d" d="m32.2 489.6h88.6v-1.9h-88.6z"/><path class="w" d="m39 476.5c3.5 1.7 5.8 4.4 7.5 7.8 1.6-3.4 4-6.1 7.4-7.8-3.4-1.8-5.8-4.5-7.4-7.9-1.7 3.4-4 6.1-7.5 7.9z"/><path class="w" d="m69 498.7c1.9 1 3.3 2.5 4.2 4.5 1-2 2.3-3.5 4.3-4.5-2-1-3.3-2.6-4.3-4.5-0.9 1.9-2.3 3.5-4.2 4.5z"/><path class="w" d="m87.7 460.9c2 1 3.3 2.5 4.3 4.5 0.9-2 2.3-3.5 4.2-4.5-1.9-1-3.3-2.6-4.2-4.5-1 1.9-2.3 3.5-4.3 4.5z"/><path class="d" d="m121.8 489.6h-1.9v-19.1h1.9z"/><path class="g" d="m362.8 233.1h-4.5l-0.1-6.1h4.6z"/><path class="g" d="m363.9 225.4h-6.9v-1.9h6.9z"/><path class="g" d="m363.4 227.2h-5.8v-1.7h5.8z"/><path class="g" d="m331.2 238.6v-4.3l19-8.4 18.9 8.4v4.3z"/><path class="d" d="m334.3 259.4h11.3v3.6h-11.3z"/><path class="d" d="m366.4 259.4v3.6h-11.2l-0.1-3.6z"/><path fill-rule="evenodd" class="a" d="m366.3 236.3l0.1 23.1h-32.1l-0.1-23.1 16-6.9zm-23.1 5h-6.5l0.1 8.6h6.5zm20.5 0h-6.4v8.5h6.5z"/><path class="d" d="m355.1 259.4l0.1 3.6h-9.6v-3.6z"/><path class="g" d="m355.1 242.3v17.1h-9.5l-0.1-17.1z"/><path class="a" d="m348.3 251.8h-1.8v-0.7h1.8z"/><path fill-rule="evenodd" class="g" d="m417 178.2q-1.8-1.5-1.8-4.1v-8.8q0-2.6 1.8-4.1 1.8-1.4 5.3-1.4 3.5 0 5.3 1.4 1.8 1.5 1.8 4.1v8.8q0 2.6-1.8 4.1-1.8 1.4-5.3 1.4-3.5 0-5.3-1.4zm7.7-3.9v-9.2q0-2.2-2.4-2.2-2.4 0-2.4 2.2v9.2q0 2.2 2.4 2.2 2.4 0 2.4-2.2zm14.6-14h4.7l-18.1 34.8h-4.7zm-1.8 34q-1.8-1.5-1.8-4.2v-8.7q0-2.7 1.8-4.1 1.8-1.5 5.3-1.5 3.5 0 5.3 1.5 1.8 1.4 1.8 4.1v8.7q0 2.7-1.8 4.2-1.8 1.4-5.3 1.4-3.5 0-5.3-1.4zm7.7-3.9v-9.2q0-2.2-2.4-2.2-2.4 0-2.4 2.2v9.2q0 2.2 2.4 2.2 2.4 0 2.4-2.2z"/><path class="a" d="m371.6 169.3v1h-41.5v-1l20.7-11.5z"/><path fill-rule="evenodd" class="q" d="m350.8 167.8c-1.9 0-3.5-1.5-3.5-3.2 0-1.8 1.6-3.3 3.5-3.3 2 0 3.6 1.5 3.6 3.3 0 1.7-1.6 3.2-3.6 3.2zm0-5.4c-1.2 0-2.3 1-2.3 2.2 0 1.1 1.1 2.1 2.3 2.1 1.3 0 2.4-1 2.4-2.1 0-1.2-1.1-2.2-2.4-2.2z"/><path class="a" d="m340.6 194.2h-5.3v-21.7h5.3z"/><path class="a" d="m353.5 194.2h-5.3v-21.7h5.3z"/><path class="a" d="m366.3 194.2h-5.2v-21.7h5.2z"/><path class="q" d="m371.6 171.6h-41.5v-1.4h41.5z"/><path class="a" d="m369.4 173.2h-37.1v-1.4h37.1z"/><path class="d" d="m369.1 194.8h-37.9v-1.4h37.9z"/><path class="d" d="m371.7 197.6h-43.1v-1.4h43.1z"/><path class="d" d="m631.8 509.1h-625.5v-3h625.5z"/><path class="a" d="m327.4 374h8.4v-18.4h7.4v-6.5h-23.1v6.5h7.3zm32.8 0h9l-5.2-7.7c3-1.5 4.7-4.2 4.7-7.8 0-5.8-4.4-9.4-11.4-9.4h-12v24.9h8.4v-6.3h2.3zm0-15.5c0 1.8-1.1 2.9-3.4 2.9h-3.1v-5.8h3.1c2.3 0 3.4 1.1 3.4 2.9zm30.3 15.5h8.7l-10.9-24.9h-8.3l-10.9 24.9h8.6l1.6-4.3h9.5zm-8.8-10.4l2.4-6.3 2.4 6.3zm31.4 10.9c4.9 0 8.8-1.7 11.2-4.9l-5.3-4.8c-1.5 1.9-3.2 2.9-5.4 2.9-3.5 0-5.9-2.4-5.9-6.2 0-3.8 2.4-6.2 5.9-6.2 2.2 0 3.9 1 5.4 2.9l5.3-4.7c-2.4-3.2-6.3-5-11.2-5-8 0-13.9 5.3-13.9 13 0 7.7 5.9 13 13.9 13zm30-0.5h9.7l-10.4-14 9.9-11h-9.1l-8.2 9.1v-9.1h-8.3v25h8.3v-6.2l1.9-2.1z"/></svg>