<svg version="1.2" xmlns="http://www.w3.org/2000/svg" viewBox="0 0 534 527" width="534" height="527"><style>.a{fill:#fff}.b{opacity:0;fill:#fff}.c{fill:#fceadc}.d{fill:#976063}.e{fill:#fdfffe}.f{fill:#5e3b3b}.g{fill:#a3bd8c}.h{fill:#fd755f}.i{fill:#f75d59}.j{fill:#c0d8a7}.k{fill:#e2edd3}.l{fill:#ffd4cf}.m{fill:#bdd6a5}.n{fill:#ffc76c}.o{fill:#ffe9ab}.p{fill:#fff9ee}.q{fill:#ffb486}.r{fill:#fca377}.s{fill:#bb8a5c}.t{fill:#ffb587}.u{fill:#ffba8c}.v{fill:#89a371}.w{fill:#9b6c49}</style><g style="display:none"></g><g style="display:none"><path class="a" d="m675 527h-900v-600h900z"/><path class="b" d="m675 527h-900v-600h900z"/></g><g style="display:none"><path class="c" d="m25.5 399.6c-33.8-12.9-80.4-60.4-88.4-120.4-5.7-43.1 3.2-74.7 16.5-97.6 23-39.5 65.9-53.5 110.5-59.8 57-8.2 83.4-42.1 122.1-83.4 43.2-46.3 156.8-92.1 219.9-38 41.1 35.1 26.9 91.3 55.4 120.3 28.8 29.2 67.4 20.4 83.3 76 12.3 43.4-14 116-91.2 170.3-71.1 49.9-310 77.5-428.1 32.6z"/></g><path class="d" d="m188.1 477.1h218.3c7.1 0 12.8-5.6 12.8-12.5v-433.2c0-6.9-5.7-12.5-12.8-12.5h-218.3c-7.1 0-12.8 5.6-12.8 12.5v433.2c0 6.9 5.7 12.5 12.8 12.5z"/><path class="e" d="m411.9 62.5v32.4c0 1.3-1 2.4-2.4 2.4h-0.2v367.3c0 6.9-5.7 12.5-12.8 12.5h-218.3c-7.1 0-12.8-5.6-12.8-12.5v-280.9h-0.3c-1.3 0-2.4-1.1-2.4-2.4v-32.4c0-1.3 1.1-2.4 2.4-2.4h0.3v-11.2h-0.3c-1.3 0-2.4-1.1-2.4-2.4v-32.4c0-1.3 1.1-2.4 2.4-2.4h0.3v-66.7c0-6.9 5.7-12.5 12.8-12.5h218.3c7.1 0 12.8 5.6 12.8 12.5v28.7h0.2c1.4 0 2.4 1.1 2.4 2.4z"/><path class="d" d="m166.4 260.1h-2v-75.4c-1.6-0.4-2.7-1.7-2.7-3.4v-32.4c0-1.6 1.1-3 2.7-3.3v-9.4c-1.6-0.3-2.7-1.7-2.7-3.3v-32.4c0-1.6 1.1-3 2.7-3.3v-65.8c0-7.4 6.2-13.5 13.8-13.5h218.3c7.6 0 13.8 6.1 13.8 13.5v27.8c1.5 0.4 2.6 1.7 2.6 3.3v32.4c0 1.6-1.1 3-2.6 3.3v138.7h-2v-140.6h1.2c0.8 0 1.4-0.6 1.4-1.4v-32.4c0-0.8-0.6-1.4-1.4-1.4h-1.2v-29.7c0-6.3-5.3-11.5-11.8-11.5h-218.3c-6.5 0-11.8 5.2-11.8 11.5v67.7h-1.3c-0.8 0-1.4 0.6-1.4 1.4v32.4c0 0.8 0.6 1.4 1.4 1.4h1.3v13.2h-1.3c-0.8 0-1.4 0.6-1.4 1.4v32.4c0 0.8 0.6 1.4 1.4 1.4h1.3z"/><path class="d" d="m396.5 478.1h-218.3c-7.6 0-13.8-6-13.8-13.5v-78.8h2v78.8c0 6.4 5.3 11.5 11.8 11.5h218.3c6.5 0 11.8-5.1 11.8-11.5v-164.8h2v164.8c0 7.5-6.2 13.5-13.8 13.5z"/><path class="c" d="m397.5 43.6v405.4c0 6.5-5.1 11.7-11.5 11.7h-196.9c-6.4 0-11.6-5.2-11.6-11.7v-405.4c0-6.5 5.2-11.7 11.6-11.7h57.5c1.8 0 3.3 1.5 3.3 3.4v5.4c0 2.4 2 4.4 4.4 4.4h66.5c2.4 0 4.4-2 4.4-4.4v-5.4c-0.1-1.9 1.4-3.4 3.3-3.4h57.4c6.5 0 11.6 5.2 11.6 11.7z"/><path class="f" d="m260.5 34c0 1.1-0.9 2-2 2-1.2 0-2.1-0.9-2.1-2 0-1.2 0.9-2.1 2.1-2.1 1.1 0 2 0.9 2 2.1z"/><path class="f" d="m318.3 35.1h-47.2c-0.7 0-1.2-0.5-1.2-1.1 0-0.6 0.5-1.2 1.2-1.2h47.2c0.6 0 1.1 0.6 1.1 1.2 0 0.6-0.5 1.1-1.1 1.1z"/><path class="a" d="m195.5 276.7h183.7c3.8 0 6.9-3.1 6.9-6.9v-180.6c0-3.8-3.1-6.9-6.9-6.9h-183.7c-3.8 0-6.9 3.1-6.9 6.9v180.6c0 3.8 3.1 6.9 6.9 6.9z"/><path class="d" d="m370.8 277.7h-174.3c-4.9 0-8.9-4-8.9-8.9v-161.8h2v161.8c0 3.8 3.1 6.9 6.9 6.9h174.3z"/><path class="d" d="m386.1 229.6h-2v-140.4c0-2.7-2.2-4.9-4.9-4.9h-165.7v-2h165.7c3.8 0 6.9 3.1 6.9 6.9z"/><path class="g" d="m179.3 197c-1.6 90.7-136.4 90.7-138 0 1.6-90.6 136.4-90.6 138 0z"/><path class="h" d="m179.3 197c-1.6 90.7-136.4 90.7-138 0 1.6-90.6 136.4-90.6 138 0z"/><path class="a" d="m170.4 197c-1.4 79-118.8 79-120.2 0 1.4-78.9 118.8-78.9 120.2 0z"/><path class="a" d="m170.4 197c-1.4 79-118.8 79-120.2 0 1.4-78.9 118.8-78.9 120.2 0z"/><path class="f" d="m145.7 205.8l-33.2-10.7-17.4-41.2c-0.4-0.9-1.3-1.5-2.3-1.5-1.7-0.1-3 1.8-2.3 3.4l16.4 38.9-44.9-13.3c-0.7-0.2-1.4 0.2-1.6 0.9-0.2 0.6 0.2 1.3 0.9 1.5l46.9 13.9 0.2 0.5-0.2 0.7 0.6 0.2 0.2 0.6 0.7-0.3 34.5 11.1c3.1 1.1 4.6-3.8 1.5-4.7z"/><path class="f" d="m103.3 156.1v1.8h6.6v-1.8h-2.1v-9.9h-1.7l-3.6 3.1c1.1 2 1.9 1.1 3.1-0.1v6.9z"/><path class="f" d="m117.8 155.8c0 0-3.7 0-3.7 0 10.7-8.3-1.7-13.9-3.2-5.9 3.1 1.1 1.5-2.5 4.5-1.7 3.9 3.1-5.3 6.4-4.7 9.7h8c0-0.8 0.3-2.1-0.9-2.1z"/><path fill-rule="evenodd" class="f" d="m107.8 239.7c0.2-0.2 2.9-4.1 3.1-4 0.4-0.3 2.2-0.1 2.6-0.1l-3.3 4.2c1.1-0.2 2.3 0.1 3.2 0.9 5.3 9.2-12.3 8.3-5.6-1zm4.5 3.8c0.2-2.6-3.9-2.5-3.9-0.1-0.2 2.6 4 2.6 3.9 0.1z"/><path class="f" d="m160.5 197.1q-0.4-0.4-0.9-0.7c5.1-5-6-8.5-6.3-1.9 0.7 0.1 2 0.6 2.2-0.5 2-4.1 5.7 2.2 0.7 1.7v1.7c3.7-0.7 3.5 4.1 0.1 3.2-1.6-0.9-1-2.8-3.3-1.4 0.7 5.9 10.7 3.3 7.5-2.1z"/><path fill-rule="evenodd" class="f" d="m63.5 202c-0.5 0.8-2.3 0.4-3.1 0.5l3.5-4.5c-7.9 0.7-3.3-11.1 2.5-6.1 3 3.2-1.2 7.4-2.9 10.1zm1.7-6.8c1-2.2-2.4-3.6-3.3-1.5-1 2.3 2.4 3.6 3.3 1.5z"/><path class="d" d="m84.3 152.6l-3.9-6.7 2-1.2 3.9 6.7z"/><path class="d" d="m138.2 249.1l-3.9-6.8 2-1.1 3.9 6.7z"/><path class="d" d="m64.6 171.8l-7-4 1.2-2 7 4z"/><path class="d" d="m64.6 171.8l-7-4 1.2-2 7 4z"/><path class="d" d="m161.9 228l-7.1-4.1 1.2-2 7 4.1z"/><path class="d" d="m58.8 228l-1.2-2 7-4.1 1.2 2z"/><path class="d" d="m58.8 228l-1.2-2 7-4.1 1.2 2z"/><path class="d" d="m156 171.8l-1.2-2 7.1-4 1.1 2z"/><path class="d" d="m82.4 249.1l-2-1.2 3.9-6.7 2 1.1z"/><path class="d" d="m82.4 249.1l-2-1.2 3.9-6.7 2 1.1z"/><path class="d" d="m136.3 152.6l-2-1.2 3.9-6.7 2 1.2z"/><path class="i" d="m116.5 197c0.2 8.1-12.5 8.1-12.4 0-0.1-8.1 12.6-8.1 12.4 0z"/><path fill-rule="evenodd" class="d" d="m110.3 257.1q0 0 0 0c-28.8 0-60.2-18.8-60.9-60.1 0.7-41.3 32.1-60 60.9-60q0 0 0 0c28.9 0 60.2 18.7 60.9 60-0.7 41.3-32 60.1-60.9 60.1zm0-118.5c-28 0-58.5 18.3-59.2 58.4 0.7 40.1 31.2 58.4 59.2 58.4 28 0 58.5-18.3 59.2-58.4-0.7-40.1-31.1-58.3-59.2-58.4z"/><path class="d" d="m171.5 166.1c-5.3-11-13.8-20.2-24.5-26.5l0.9-1.4c10.9 6.4 19.7 15.9 25.1 27.2z"/><path class="d" d="m42.3 213.2c-1.1-5.1-1.7-10.6-1.8-16.2 0.5-28.8 13.9-45.3 25.2-54 16.8-13.2 40-18 62-12.8l-0.4 1.6c-21.5-5-44.2-0.3-60.6 12.5-10.9 8.6-24 24.6-24.5 52.7 0.1 5.5 0.7 10.8 1.8 15.8z"/><path class="d" d="m110.4 265.9c-20.8 0-41-8.5-54-23.8l1.2-1.1c17.9 21.1 49.9 28.8 77.7 18.9 26.9-9.6 42.6-32.6 43.1-62.9h1.7c-0.3 16.3-4.7 30.3-13.2 41.8-7.6 10.3-18.4 18.1-31 22.7-8.3 2.9-17 4.4-25.5 4.4z"/><path class="j" d="m281.7 174.1h-71.2v-54.8h71.2z"/><path class="j" d="m293 119.3h71.2v54.8h-71.2z"/><path class="j" d="m281.7 239.6h-71.2v-54.7h71.2z"/><path class="j" d="m364.2 239.6h-71.2v-54.7h71.2z"/><path class="a" d="m326.1 227.7q-3.1-0.5-4.8-2.5-1.7-2.1-1.7-5.2v-2.2h5.7v2.5q0 2.9 3.1 2.9 3.1 0 3.1-3 0-1.8-1.1-3.3-1.1-1.5-4-3.4-3.7-2.5-5.1-4.7-1.5-2.1-1.5-4.9 0-3 1.6-5 1.6-2 4.7-2.6v-2.8h4.9v2.8q3.2 0.6 4.8 2.6 1.6 2 1.6 5.1v1h-5.6v-1.3q0-2.9-3-2.9-3 0-3 2.8 0 1.7 1.1 3.1 1.1 1.5 4 3.5 3.7 2.5 5.1 4.7 1.5 2.2 1.5 5 0 3.2-1.7 5.2-1.6 2.1-4.8 2.6v3.3h-4.9z"/><path class="g" d="m252.6 332.2v19.4h-188.8v-19.4c0-5.9 4.8-10.7 10.7-10.7h167.5c5.8 0 10.6 4.8 10.6 10.7z"/><path class="e" d="m252.6 351.6v114c0 5.8-4.8 10.6-10.6 10.6h-167.5c-5.9 0-10.7-4.8-10.7-10.6v-114z"/><path class="k" d="m75.1 371.6h17.6v14.5h-17.6z"/><path class="k" d="m75.1 394.6h17.6v14.4h-17.6z"/><path class="k" d="m75.1 417.5h17.6v14.4h-17.6z"/><path class="k" d="m75.1 440.4h17.6v14.5h-17.6z"/><path class="k" d="m99.8 371.6h17.7v14.5h-17.7z"/><path class="k" d="m99.8 394.6h17.7v14.4h-17.7z"/><path class="k" d="m99.8 417.5h17.7v14.4h-17.7z"/><path class="k" d="m99.8 440.4h17.7v14.5h-17.7z"/><path class="k" d="m124.6 371.6h17.7v14.5h-17.7z"/><path class="k" d="m124.6 394.6h17.7v14.4h-17.7z"/><path class="k" d="m124.6 417.5h17.7v14.4h-17.7z"/><path class="k" d="m124.6 440.4h17.7v14.5h-17.7z"/><path class="k" d="m149.4 371.6h17.7v14.5h-17.7z"/><path class="h" d="m149.4 394.6h17.7v14.4h-17.7z"/><path class="k" d="m149.4 417.5h17.7v14.4h-17.7z"/><path class="k" d="m149.4 440.4h17.7v14.5h-17.7z"/><path class="k" d="m174.2 371.6h17.6v14.5h-17.6z"/><path class="k" d="m174.2 394.6h17.6v14.4h-17.6z"/><path class="k" d="m174.2 417.5h17.6v14.4h-17.6z"/><path class="k" d="m174.2 440.4h17.6v14.5h-17.6z"/><path class="l" d="m198.9 417.5h17.7v14.4h-17.7z"/><path class="l" d="m198.9 371.6h17.7v14.5h-17.7z"/><path class="l" d="m198.9 394.6h17.7v14.4h-17.7z"/><path class="l" d="m198.9 440.4h17.7v14.5h-17.7z"/><path class="l" d="m223.7 440.4h17.7v14.5h-17.7z"/><path class="l" d="m223.7 371.6h17.7v14.5h-17.7z"/><path class="l" d="m223.7 394.6h17.7v14.4h-17.7z"/><path class="l" d="m223.7 417.5h17.7v14.4h-17.7z"/><path class="e" d="m157.3 407.2l-5.1-6.9 1.6-1.3 3.5 4.6 5.4-7.3 1.6 1.4z"/><path class="d" d="m82.2 350.6h152v1.7h-152z"/><path class="d" d="m253.4 363.1h-1.6v-30.9c0-5.4-4.4-9.8-9.8-9.8h-167.5v-1.7h167.5c6.3 0 11.4 5.1 11.4 11.5z"/><path class="d" d="m242 477h-167.5c-6.4 0-11.5-5.1-11.5-11.4v-133.4h1.7v133.4c0 5.4 4.4 9.8 9.8 9.8h167.5c5.4 0 9.8-4.4 9.8-9.8v-66.7h1.6v66.7c0 6.3-5.1 11.4-11.4 11.4z"/><path class="m" d="m117.2 339.5c-2.6 0-4.7-2.3-4.7-5 0-2.8 2.1-5 4.7-5 2.6 0 4.7 2.2 4.7 5 0 2.7-2.1 5-4.7 5z"/><path class="f" d="m114.1 314.8c0-1.6 1.4-3 3.1-3 1.6 0 3 1.4 3 3v18.8c0 1.7-1.4 3.1-3 3.1-1.7 0-3.1-1.4-3.1-3.1z"/><path class="m" d="m92.7 339.5c-2.6 0-4.7-2.3-4.7-5 0-2.8 2.1-5 4.7-5 2.6 0 4.7 2.2 4.7 5 0 2.7-2.1 5-4.7 5z"/><path class="f" d="m89.7 314.8c0-1.6 1.4-3 3-3 1.7 0 3.1 1.4 3.1 3v18.8c0 1.7-1.4 3.1-3.1 3.1-1.6 0-3-1.4-3-3.1z"/><path class="m" d="m143.8 339.5c-2.6 0-4.7-2.3-4.7-5 0-2.8 2.1-5 4.7-5 2.6 0 4.7 2.2 4.7 5 0 2.7-2.1 5-4.7 5z"/><path class="f" d="m140.8 314.8c0-1.6 1.3-3 3-3 1.7 0 3 1.4 3 3v18.8c0 1.7-1.3 3.1-3 3.1-1.7 0-3-1.4-3-3.1z"/><path class="m" d="m170.4 339.5c-2.6 0-4.7-2.3-4.7-5 0-2.8 2.1-5 4.7-5 2.6 0 4.7 2.2 4.7 5 0 2.7-2.1 5-4.7 5z"/><path class="f" d="m167.4 314.8c0-1.6 1.4-3 3-3 1.7 0 3.1 1.4 3.1 3v18.8c0 1.7-1.4 3.1-3.1 3.1-1.6 0-3-1.4-3-3.1z"/><path class="m" d="m197.1 339.5c-2.6 0-4.7-2.3-4.7-5 0-2.8 2.1-5 4.7-5 2.6 0 4.7 2.2 4.7 5 0 2.7-2.1 5-4.7 5z"/><path class="f" d="m194 314.8c0-1.6 1.4-3 3.1-3 1.7 0 3 1.4 3 3v18.8c0 1.7-1.3 3.1-3 3.1-1.7 0-3.1-1.4-3.1-3.1z"/><path class="m" d="m223.7 339.5c-2.6 0-4.7-2.3-4.7-5 0-2.8 2.1-5 4.7-5 2.6 0 4.7 2.2 4.7 5 0 2.7-2.1 5-4.7 5z"/><path class="f" d="m220.7 314.8c0-1.6 1.3-3 3-3 1.7 0 3 1.4 3 3v18.8c0 1.7-1.3 3.1-3 3.1-1.7 0-3-1.4-3-3.1z"/><path class="n" d="m364.3 439.3c-4.8 24.8-28.8 41-53.5 36.2-24.8-4.8-41-28.7-36.2-53.5 4.8-24.8 28.7-41 53.5-36.2 24.8 4.8 41 28.8 36.2 53.5z"/><path class="o" d="m351.7 436.9c-3.4 17.8-20.7 29.5-38.5 26.1-17.8-3.5-29.5-20.7-26-38.6 3.4-17.8 20.7-29.5 38.5-26 17.8 3.4 29.5 20.7 26 38.5z"/><path class="d" d="m297.4 471.8c-17.5-9.5-27.7-29.5-23.7-50 2.3-12.2 9.3-22.8 19.6-29.8 10.3-6.9 22.8-9.5 35-7.1 5.5 1 10.6 3 15.3 5.9l-0.9 1.6c-4.6-2.8-9.5-4.7-14.8-5.7-11.7-2.3-23.6 0.2-33.5 6.9-9.9 6.7-16.6 16.8-18.9 28.6-4.7 24.2 11.2 47.7 35.4 52.4 11.2 2.2 22.6 0.1 32.2-5.9l1 1.6c-10 6.2-21.9 8.4-33.5 6.2-4.8-1-9.2-2.6-13.2-4.7z"/><path class="d" d="m356.4 459.1l-1.5-1.1c4.3-5.6 7.2-11.9 8.5-18.8 2.4-12.6-0.7-25.6-8.5-35.8l1.5-1.1c8.1 10.5 11.4 24.1 8.8 37.2-1.4 7.2-4.3 13.8-8.8 19.6z"/><path class="n" d="m311.9 451.3q-4.3-1.6-6-4.8-1.8-3.3-1-7.6l0.6-3 7.9 1.6-0.7 3.4q-0.7 3.9 3.6 4.8 4.3 0.8 5.1-3.3 0.5-2.5-0.6-4.8-1.1-2.3-4.7-5.8-4.5-4.4-5.9-7.8-1.5-3.4-0.8-7.1 0.8-4.2 3.6-6.5 2.8-2.3 7.3-2.3l0.7-3.9 6.9 1.3-0.8 3.9q4.3 1.7 6 4.9 1.8 3.1 0.9 7.5l-0.2 1.3-7.9-1.6 0.3-1.7q0.8-4-3.4-4.8-4.2-0.8-4.9 3-0.5 2.4 0.6 4.6 1.2 2.3 4.8 5.9 4.4 4.4 5.8 7.8 1.5 3.4 0.8 7.3-0.9 4.4-3.7 6.8-2.9 2.3-7.5 2.2l-0.8 4.6-6.9-1.4z"/><path class="p" d="m301.5 396c2.2 3.1 3 6.6 2.8 10.3 3-2.2 6.4-3.4 10.2-3.3-2.2-3.2-3-6.6-2.8-10.3-3 2.1-6.4 3.4-10.2 3.3z"/><path class="p" d="m320.8 461.8c1.3 1.8 1.7 3.8 1.6 6 1.8-1.3 3.7-2 5.9-1.9-1.2-1.9-1.7-3.9-1.6-6-1.7 1.2-3.7 2-5.9 1.9z"/><path class="n" d="m36.5 476.6h88.7v-17.2h-88.7z"/><path class="n" d="m55.2 457.6h88.6v-17.1h-88.6z"/><path class="n" d="m36.6 438.7h88.6v-17.1h-88.6z"/><path class="d" d="m115 438.7h1.8v-17.1h-1.8z"/><path class="d" d="m105.6 438.7h1.9v-17.1h-1.9z"/><path class="d" d="m77.6 438.7h1.9v-17.1h-1.9z"/><path class="d" d="m59 438.7h1.8v-17.1h-1.8z"/><path class="d" d="m133.6 457.6h1.8v-17.1h-1.8z"/><path class="d" d="m124.2 457.6h1.9v-17.1h-1.9z"/><path class="d" d="m96.2 457.6h1.9v-17.1h-1.9z"/><path class="d" d="m86.9 457.6h1.9v-17.1h-1.9z"/><path class="d" d="m77.6 476.6h1.8v-17.2h-1.8z"/><path class="d" d="m58.9 476.6h1.9v-17.2h-1.9z"/><path class="d" d="m49.6 476.6h1.8v-17.2h-1.8z"/><path class="d" d="m36.6 440.5h88.1v-1.9h-88.1z"/><path class="d" d="m55.2 459.6h88.6v-1.9h-88.6z"/><path class="p" d="m-65 445.5c3.5 1.7 5.8 4.4 7.5 7.8 1.6-3.4 4-6.1 7.4-7.8-3.4-1.8-5.8-4.5-7.4-7.9-1.7 3.4-4 6.1-7.5 7.9z"/><path class="p" d="m-35 467.7c1.9 1 3.3 2.5 4.2 4.5 1-2 2.3-3.5 4.3-4.5-2-1-3.3-2.6-4.3-4.5-0.9 1.9-2.3 3.5-4.2 4.5z"/><path class="p" d="m-16.3 429.9c2 1 3.3 2.5 4.3 4.5 0.9-2 2.3-3.5 4.2-4.5-1.9-1-3.3-2.6-4.2-4.5-1 1.9-2.3 3.5-4.3 4.5z"/><path class="d" d="m17.8 458.6h-1.9v-19.1h1.9z"/><path class="h" d="m258.8 202.1h-4.5l-0.1-6.1h4.6z"/><path class="h" d="m259.9 194.4h-6.9v-1.9h6.9z"/><path class="h" d="m259.4 196.2h-5.8v-1.7h5.8z"/><path class="h" d="m227.2 207.6v-4.3l19-8.4 18.9 8.4v4.3z"/><path class="d" d="m230.3 228.4h11.3v3.6h-11.3z"/><path class="d" d="m262.4 228.4v3.6h-11.2l-0.1-3.6z"/><path fill-rule="evenodd" class="a" d="m262.3 205.3l0.1 23.1h-32.1l-0.1-23.1 16-6.9zm-23.1 5h-6.5l0.1 8.6h6.5zm20.5 0h-6.4v8.5h6.5z"/><path class="d" d="m251.1 228.4l0.1 3.6h-9.6v-3.6z"/><path class="h" d="m251.1 211.3v17.1h-9.5l-0.1-17.1z"/><path class="a" d="m244.3 220.8h-1.8v-0.7h1.8z"/><path class="a" d="m267.6 138.3v1h-41.5v-1l20.7-11.5z"/><path fill-rule="evenodd" class="j" d="m246.8 136.8c-1.9 0-3.5-1.5-3.5-3.2 0-1.8 1.6-3.3 3.5-3.3 2 0 3.6 1.5 3.6 3.3 0 1.7-1.6 3.2-3.6 3.2zm0-5.4c-1.2 0-2.3 1-2.3 2.2 0 1.1 1.1 2.1 2.3 2.1 1.3 0 2.4-1 2.4-2.1 0-1.2-1.1-2.2-2.4-2.2z"/><path class="a" d="m236.6 163.2h-5.3v-21.7h5.3z"/><path class="a" d="m249.5 163.2h-5.3v-21.7h5.3z"/><path class="a" d="m262.3 163.2h-5.2v-21.7h5.2z"/><path class="j" d="m267.6 140.6h-41.5v-1.4h41.5z"/><path class="a" d="m265.4 142.2h-37.1v-1.4h37.1z"/><path class="d" d="m265.1 163.8h-37.9v-1.4h37.9z"/><path class="d" d="m267.7 166.6h-43.1v-1.4h43.1z"/><path fill-rule="evenodd" class="h" d="m313 147.2q-1.8-1.5-1.8-4.1v-8.8q0-2.6 1.8-4.1 1.8-1.4 5.3-1.4 3.5 0 5.3 1.4 1.8 1.5 1.8 4.1v8.8q0 2.6-1.8 4.1-1.8 1.4-5.3 1.4-3.5 0-5.3-1.4zm7.7-3.9v-9.2q0-2.2-2.4-2.2-2.4 0-2.4 2.2v9.2q0 2.2 2.4 2.2 2.4 0 2.4-2.2zm14.6-14h4.7l-18.1 34.8h-4.7zm-1.8 34q-1.8-1.5-1.8-4.2v-8.7q0-2.7 1.8-4.1 1.8-1.5 5.3-1.5 3.5 0 5.3 1.5 1.8 1.4 1.8 4.1v8.7q0 2.7-1.8 4.2-1.8 1.4-5.3 1.4-3.5 0-5.3-1.4zm7.7-3.9v-9.2q0-2.2-2.4-2.2-2.4 0-2.4 2.2v9.2q0 2.2 2.4 2.2 2.4 0 2.4-2.2z"/><path class="d" d="m9 475h518.8v2.5h-518.8z"/><path class="q" d="m480.7 460.4l2.4-28.1h-20.6l1.2 28.1z"/><path class="r" d="m483.1 432.7l-1.4 15.9c-7.3 0.4-14.3-0.5-18.6-1.2l-0.7-16.4z"/><path class="s" d="m446.1 441.5c19.6 3.1 37.7 4.3 51.5 0 0 0 11.7-130.9-9-251.1l-41.4 0.2c0 0-15.9 144.5-1.1 250.9z"/><path class="f" d="m444.6 70.8c-7.9-2-12.8-5.4-14.6-10.3-2.6-7 2.5-14.2 3-15l1.6 1.1c-0.2 0.3-5.1 7-2.8 13.3 1.5 4.2 6 7.2 13.2 9z"/><path class="q" d="m359.8 460.4l8.9-28.1h-20.7l-6.2 28.1z"/><path class="r" d="m368.7 432l-4.9 15.5c-9.3 1.7-16.4 0.1-19-0.6l3.6-15.7h7.3z"/><path class="g" d="m469 107.2c0 0 55.7 10.3 50.7 65.4-2.1 22.9-19.4 38.7-19.4 38.7l-6.4-19.4-22.2 7.5z"/><path class="t" d="m438.1 112.6l3.9-30h17.7l4.2 30z"/><path class="t" d="m447.1 94.2c11.2-3.2 24.4-18.6 19.5-36.5-3.9-14.2-28.1-10.2-34.6 1.9-10 18.9-10.6 41.8 15.1 34.6z"/><path class="u" d="m344.9 142.5c-1.1-0.7-4.6-3.1-5.2-4.3-0.5-1.1-2.6-7.5-3.9-6.9-1.3 0.6 1 4.7-0.2 5-0.7 0.1-5.4-7.8-6.7-6.5-0.8 0.8 2.7 5.2 2.1 5.5-0.5 0.3-3.7-6.1-5-4.9-1.3 1.3 4.4 6.6 3.8 7.1-0.3 0.3-5.4-6.7-6.4-5.7-1.4 1.3 4.3 6.2 3.7 6.9-0.2 0.3-1.9-1.8-3.1-2.9-0.6-0.6-1.2-0.2-1.1 0.4 2 5.9 11.5 11.5 12.1 12.3q1.4 2 2.8 3.8z"/><path class="s" d="m332.4 440.2c18.8 2.7 36.4 3.3 51.7 0 63.5-117.8 90.1-250.8 90.1-250.8h-49.1c-63.3 109.1-92.7 250.8-92.7 250.8z"/><path class="g" d="m373.2 155.1l-27.8-15-10.2 13.2c0 0 16.4 42.8 48.6 39.2 25.8-2.8 41.3-51.1 41.3-51.1z"/><path class="g" d="m500.9 225.2c-44.3 20.2-108.7 2.5-108.7 2.5l1.9-6.5 0.3-1 16.8-55.8-44.1-0.5c0 0 29.5-41.4 46.7-51.5 4.5-2.6 10.5-4.6 17.3-5.9q0.8-0.1 1.6-0.2c11.1-1.8 24.1-1.7 35.8 0.8q0.7 0.1 1.3 0.3c6.6 1.5 12.8 3.7 18.1 6.8 0 0-3.2 17.8 1.2 29.9 10.1 27.5 11.6 60.3 11.8 74.2q0 0.6 0 1.2c0 3.6 0 5.7 0 5.7z"/><path class="v" d="m462.1 234.4q-1 0-1.9 0.1-0.8 0.1-1.5 0.1c-34.4 1.9-66.5-6.9-66.5-6.9l1.9-6.5 0.3-1 13-43.5c2.2-2.3 13.3-20.2 15-27.5 0 0 0.7 18.6-5.1 33.9-3.7 9.6-7.9 23.9-3 33 6.4 11.8 47.3 18.1 47.8 18.3z"/><path class="f" d="m370.8 160.8l-1.5-1.3 18.4-22.6 1.5 1.3z"/><path class="f" d="m438 96c-5.6 0-8.6-2.9-8.7-3l1.3-1.4c0.2 0.2 4.9 4.6 14 1.1l0.7 1.8c-2.8 1.1-5.2 1.5-7.3 1.5z"/><path class="t" d="m462.9 105.8c-13 6.2-23.9-0.6-23.9-0.6l0.3-2.3 23.2-0.4z"/><path class="f" d="m449 229.8c-25.5 0-47.1-5.4-55.1-7.7l0.5-1.8c8 2.2 29.3 7.5 54.6 7.5 19.3 0 36.6-3.1 51.5-9.2l0.8 1.8c-15.2 6.2-32.8 9.4-52.3 9.4z"/><path class="f" d="m502.4 225.2h-1.9c0-0.5-0.2-47.9-11.7-81l1.8-0.6c11.6 33.4 11.8 81.1 11.8 81.6z"/><path class="f" d="m453.7 113.5c-9.3 0-18-4.4-21.4-6.4l0.9-1.7c5.1 3 22.8 11.8 34.7 1l1.3 1.4c-4.7 4.3-10.2 5.7-15.5 5.7z"/><path class="f" d="m311.9 475.5h53.7l-3.7-21.1c-11.4 5.2-16.6 1.9-20 0.8 0 0-2.7 2.4-5.9 3.6-8.5 3.3-23.5 8-23.9 12q0 0 0 0c-0.4 2.1-0.3 4.1-0.2 4.7z"/><path class="e" d="m326.7 466h-0.8 0.8l-0.8-0.1c0.1-1.9 0.4-4 0.7-5.7l1.5 0.3c-0.4 1.7-0.6 3.6-0.7 5.5z"/><path class="e" d="m331.3 464.9h-1.5c0 0 0-3 0.8-6.2l1.4 0.3c-0.7 3-0.7 5.9-0.7 5.9z"/><path class="f" d="m432.1 475.5h53.7l-3.6-21.1c-11.4 5.2-16.6 1.9-20.1 0.8 0 0-2.7 2.4-5.9 3.6-8.5 3.3-23.5 8-23.8 12q0 0-0.1 0c-0.4 2.1-0.2 4.1-0.2 4.7z"/><path class="e" d="m446.9 466h-0.7 0.7l-0.7-0.1c0-2 0.3-4 0.7-5.7l1.4 0.3c-0.3 1.6-0.6 3.6-0.7 5.5z"/><path class="e" d="m451.5 464.9h-1.5c0 0 0.1-3 0.8-6.2l1.5 0.3c-0.7 3-0.8 5.9-0.8 5.9z"/><path class="f" d="m417.7 162.6l-1.5-1.3 9.8-10.9 1.4 1.3z"/><path class="f" d="m496.8 221.2h-1.9c0-10.9-1.4-26.3-1.4-26.5l1.9-0.1c0 0.1 1.4 15.6 1.4 26.6z"/><path class="f" d="m380.1 194.3c-30.4 0-46.1-40-46.3-40.4l1.8-0.7c0.2 0.4 15.4 39.1 44.5 39.1q1.8 0 3.7-0.2c25.2-2.8 40.3-48.9 40.9-50.9l1.9 0.6c-0.7 2-16.2 49.3-42.6 52.2q-2 0.3-3.9 0.3z"/><path class="f" d="m499.8 139.4c-11.6 6.9-39.2 5.2-49.2-17.8-7.3-17-3.7-36.3-2-41.7l-3-9.5c0 0-15.1-6.6-11.3-24.1 0 0 1.7 1.3 6.8 0.9 2.8-0.2 10.4-3 17.8-1.4q0.1 0 0.1 0c6.7 0.8 20.7 5.5 22.1 27.7 1.2 18.4 16.5 20.3 23.7 27.7 14.5 14.7 8.1 30.3-5 38.2z"/><path class="t" d="m447.4 80c-2.7 0-4.9-2.2-4.9-5 0-2.8 2.2-5 4.9-5 2.8 0 5 2.2 5 5 0 2.8-2.2 5-5 5z"/><path class="f" d="m517.1 110.8c-1.2-4.8-4.1-9.2-8.8-13.3-2.2-1.9-5-3.3-8-4.8-7.7-3.9-15.6-7.8-17.4-20.6-3.1-21.8-17.4-24.8-23.4-25.2h-0.2c-5.4-0.7-10.7 0.9-14.2 2-1.2 0.4-2.3 0.7-3 0.8l-0.3-1.9c0.6-0.1 1.6-0.4 2.7-0.7 3.7-1.2 9.2-2.9 15.1-2.1 6.4 0.4 21.9 3.6 25.2 26.8 1.7 11.8 9.1 15.5 16.3 19.1 3.1 1.6 6.1 3.1 8.5 5.1 4.9 4.4 8.1 9.2 9.4 14.3z"/><path class="w" d="m488.4 443.5c-12.3 1.7-26.8 0.4-42.2-2-5.8-41.5-6.6-88.2-5.9-130.5 0.1 0.5 12.7-40.3 12.7-40.3 0 0-5.5 31.9-3.6 51 2 19.8 9.2 25.7 12 48 1.6 13-4.9 22.9-2.5 36.5 2.5 14.4 13.5 23.3 24.3 33 1.5 1.4 3.5 2.8 5.2 4.3z"/><path class="e" d="m440.6 313.7l-1.8-0.6c5.2-14.9 10.1-30.2 14.7-45.4l1.9 0.5c-4.6 15.3-9.6 30.6-14.8 45.5z"/><path class="w" d="m387.1 434.7q-1.5 2.8-3 5.6c-15.3 3.2-32.9 2.6-51.7 0 0 0 13.4-64.6 41.6-140.2 1.3 13.9-2.1 28.3-6.2 41.8-5.4 17.8-11.9 35.9-10.3 54.4 1.2 13.4 8.1 27.7 19.9 34.9 2.8 1.7 6.2 2.7 9.7 3.5z"/><path class="e" d="m371.3 312l-1.8-0.7c11.5-32 23.2-60.7 33.9-82.9l1.7 0.8c-10.6 22.2-22.3 50.8-33.8 82.8z"/><path class="h" d="m229.5 318.3h123.7c6.2 0 11.2-5.1 11.2-11.3v-15.4c0-6.1-5-11.2-11.2-11.2h-123.7c-6.2 0-11.2 5.1-11.2 11.2v15.4c0 6.2 5 11.3 11.2 11.3z"/><path class="d" d="m353.2 319.3h-104.5v-2h104.5c5.6 0 10.2-4.6 10.2-10.3v-15.4h2v15.4c0 6.8-5.5 12.3-12.2 12.3z"/><path class="d" d="m229.5 319.3c-6.7 0-12.2-5.5-12.2-12.3v-15.4c0-6.7 5.5-12.2 12.2-12.2h75.8v2h-75.8c-5.6 0-10.2 4.6-10.2 10.2v15.4c0 5.7 4.6 10.3 10.2 10.3z"/><path class="d" d="m353.2 281.4h-28.8v-2h28.8z"/><g style="display:none"><path fill-rule="evenodd" class="e" d="m266.7 289.3h6.8q3.5 0 5.2 1.2 1.7 1.3 1.7 3.7v2q0 2.5-1.7 3.8-1.7 1.2-5.2 1.2h-2.1v8.2h-4.7zm6.8 9.1q1.2 0 1.7-0.4 0.6-0.4 0.6-1.5v-2.4q0-1-0.6-1.4-0.5-0.5-1.7-0.5h-2.1v6.2z"/></g><g style="display:none"><path fill-rule="evenodd" class="e" d="m287.6 289.3h6.3l4.8 20.1h-4.7l-0.8-4v0.1h-5.3l-0.8 3.9h-4.3zm5.1 13.5l-2.1-9.9h-0.1l-2 9.9z"/></g><g style="display:none"><path class="e" d="m305.8 300.8l-5.6-11.5h4.9l3.1 7.4h0.1l3.2-7.4h4.5l-5.6 11.5v8.6h-4.6z"/></g><path class="a" d="m236.9 311h7.8v-17h6.7v-6.1h-21.3v6.1h6.8zm30.3 0h8.3l-4.8-7.1c2.7-1.5 4.3-4 4.3-7.3 0-5.3-4.1-8.7-10.5-8.7h-11.1v23.1h7.8v-5.8h2.1zm0-14.4c0 1.7-1.1 2.7-3.2 2.7h-2.8v-5.4h2.8c2.1 0 3.2 1 3.2 2.7zm28 14.4h8l-10-23.1h-7.7l-10.1 23.1h7.9l1.6-4h8.7zm-8.1-9.7l2.2-5.8 2.3 5.8zm29 10.2c4.5 0 8.1-1.7 10.4-4.6l-5-4.4c-1.3 1.7-2.9 2.7-5 2.7-3.2 0-5.4-2.2-5.4-5.8 0-3.5 2.2-5.7 5.4-5.7 2.1 0 3.7 1 5 2.7l5-4.4c-2.3-3-5.9-4.6-10.4-4.6-7.4 0-12.8 4.9-12.8 12 0 7.1 5.4 12.1 12.8 12.1zm27.7-0.5h9l-9.6-13 9.2-10.1h-8.5l-7.6 8.4v-8.4h-7.6v23.1h7.6v-5.7l1.8-2z"/></svg>